<svg xmlns="http://www.w3.org/2000/svg" width="1200" height="420" viewBox="0 0 1200 420">
  <defs>
    <linearGradient id="bg" x1="0" y1="0" x2="1" y2="1">
      <stop offset="0%" stop-color="#dff1ff"/>
      <stop offset="52%" stop-color="#efe1ff"/>
      <stop offset="100%" stop-color="#fff2da"/>
    </linearGradient>
  </defs>
  <rect width="1200" height="420" fill="url(#bg)"/>
  <rect x="60" y="58" width="500" height="304" rx="26" fill="#fff" opacity="0.62"/>
  <rect x="625" y="70" width="505" height="285" rx="30" fill="#fff" opacity="0.5"/>
  <path d="M128 282l55-120 30 42 38-80 42 96 18-36 36 98z" fill="#8b7ad9"/>
  <rect x="295" y="170" width="12" height="120" fill="#836ad5"/>
  <rect x="327" y="142" width="12" height="148" fill="#836ad5"/>
  <rect x="359" y="156" width="12" height="134" fill="#836ad5"/>
  <polygon points="301,170 335,120 368,170" fill="#6753b5"/>
  <rect x="440" y="190" width="66" height="90" rx="24" fill="#6fb989"/>
  <circle cx="437" cy="198" r="18" fill="#6fb989"/>
  <circle cx="507" cy="198" r="18" fill="#6fb989"/>
  <path d="M655 130h145" stroke="#7c66d8" stroke-width="8" stroke-linecap="round"/>
  <path d="M843 130h145" stroke="#40a97f" stroke-width="8" stroke-linecap="round"/>
  <path d="M1030 130h45" stroke="#f6a34d" stroke-width="8" stroke-linecap="round"/>
  <text x="98" y="326" font-size="48" font-weight="700" fill="#4c3e5e">DAY 2｜USJ 電影日</text>
  <text x="98" y="362" font-size="27" fill="#685a7a">哈利波特氛圍・侏羅紀乘船遊・表演與萬聖節氣氛</text>
  <text x="656" y="190" font-size="74" font-weight="700" fill="#5d4ac5">USJ</text>
  <text x="656" y="235" font-size="28" fill="#665d77">主題餐廳 × 遊行 × 代表性合照點</text>
  <rect x="676" y="262" width="120" height="56" rx="18" fill="#8b7ad9"/>
  <rect x="812" y="262" width="120" height="56" rx="18" fill="#49b48b"/>
  <rect x="948" y="262" width="120" height="56" rx="18" fill="#ffb350"/>
  <text x="704" y="298" font-size="26" fill="#fff">魔法感</text>
  <text x="845" y="298" font-size="26" fill="#fff">恐龍感</text>
  <text x="972" y="298" font-size="26" fill="#fff">夜氣氛</text>
</svg>
